<?xml version="1.0" encoding="UTF-8" standalone="no"?>
<svg
   xmlns:dc="http://purl.org/dc/elements/1.1/"
   xmlns:cc="http://creativecommons.org/ns#"
   xmlns:rdf="http://www.w3.org/1999/02/22-rdf-syntax-ns#"
   xmlns:svg="http://www.w3.org/2000/svg"
   xmlns="http://www.w3.org/2000/svg"
   xmlns:sodipodi="http://sodipodi.sourceforge.net/DTD/sodipodi-0.dtd"
   xmlns:inkscape="http://www.inkscape.org/namespaces/inkscape"
   sodipodi:docname="logo.svg"
   inkscape:version="1.0 (4035a4fb49, 2020-05-01)"
   id="svg8"
   version="1.1"
   viewBox="0 0 27.76803 40.20285"
   height="40.20285mm"
   width="27.76803mm">
  <defs
     id="defs2" />
  <sodipodi:namedview
     inkscape:window-maximized="1"
     inkscape:window-y="-9"
     inkscape:window-x="-9"
     inkscape:window-height="1001"
     inkscape:window-width="1920"
     showgrid="false"
     inkscape:document-rotation="0"
     inkscape:current-layer="layer1"
     inkscape:document-units="mm"
     inkscape:cy="85.08868"
     inkscape:cx="51.940892"
     inkscape:zoom="1.16"
     inkscape:pageshadow="2"
     inkscape:pageopacity="0.0"
     borderopacity="1.0"
     bordercolor="#666666"
     pagecolor="#ffffff"
     id="base" />
  <metadata
     id="metadata5">
    <rdf:RDF>
      <cc:Work
         rdf:about="">
        <dc:format>image/svg+xml</dc:format>
        <dc:type
           rdf:resource="http://purl.org/dc/dcmitype/StillImage" />
        <dc:title></dc:title>
      </cc:Work>
    </rdf:RDF>
  </metadata>
  <g
     transform="translate(-92.090639,-125.65362)"
     id="layer1"
     inkscape:groupmode="layer"
     inkscape:label="Layer 1">
    <path
       id="path847"
       d="m 99.032099,165.59604 c -0.64221,-0.25801 -1.12063,-1.21731 -1.12063,-2.24703 0,-0.41504 -0.64545,-1.34777 -1.86477,-2.69475 -2.44812,-2.70442 -3.95606,-4.96349 -3.95606,-5.92662 v -0.7636 h 2.91042 2.91041 v -1.97525 -1.97525 l -1.85172,-1.85173 c -2.19679,-2.19679 -3.96911,-4.82258 -3.96911,-5.88046 v -0.75273 h 2.91042 2.91041 v -1.86174 -1.86175 l -2.3913,-2.66641 c -2.49957,-2.78714 -3.42953,-4.24423 -3.42953,-5.37351 v -0.672 h 2.87601 2.876 l 0.14048,-1.24633 c 0.2459,-2.18156 0.28781,-2.19326 7.859471,-2.19326 6.12806,0 6.59248,0.0337 7.21594,0.52415 0.4579,0.36019 0.72202,0.89541 0.84432,1.71099 l 0.17798,1.18685 2.82938,0.0749 2.82938,0.075 -0.0836,0.79375 c -0.1291,1.22576 -1.17985,2.80497 -3.4905,5.24601 l -2.11443,2.23376 v 2.0148 2.0148 h 2.9038 2.9038 l -0.15772,0.8599 c -0.25468,1.38852 -1.28073,2.9302 -3.53545,5.31216 l -2.11443,2.23375 v 2.01481 2.0148 h 2.9038 2.9038 l -0.16294,0.85989 c -0.0896,0.47295 -0.28241,1.09803 -0.42843,1.38907 -0.41952,0.83621 -2.67737,3.59282 -3.98408,4.86416 -0.98607,0.95938 -1.2229,1.3827 -1.36938,2.44776 -0.12828,0.93267 -0.36248,1.43358 -0.84938,1.81657 -0.63137,0.49663 -1.06036,0.52778 -7.05272,0.51203 -3.50926,-0.009 -6.650091,-0.12509 -6.979631,-0.25748 z m 9.166561,-1.36971 c 1.15427,-0.35098 2.83835,-1.87815 3.49885,-3.17285 0.48547,-0.9516 0.52807,-1.78817 0.66787,-13.11492 0.17579,-14.24275 0.0249,-16.63214 -1.15869,-18.35247 -2.83103,-4.11477 -9.40473,-3.37587 -11.348231,1.27557 -0.51022,1.22115 -0.66161,27.70735 -0.16758,29.32009 0.640621,2.09127 2.783221,3.92777 5.099761,4.37118 1.00794,0.19292 2.0177,0.0962 3.40802,-0.3266 z m -4.50378,-2.36646 c -1.63789,-0.94975 -2.56501,-3.1814 -2.07606,-4.99721 0.59756,-2.21918 3.20509,-3.74122 5.38039,-3.14059 4.93514,1.36266 4.09677,8.72546 -0.99093,8.70256 -0.8841,-0.004 -1.68241,-0.19887 -2.3134,-0.56476 z m 0.65962,-11.87551 c -0.45816,-0.14017 -1.19729,-0.66974 -1.64251,-1.17682 -3.494491,-3.98 1.16746,-9.52044 5.6696,-6.73796 2.55356,1.57819 2.56702,5.79825 0.0235,7.37023 -1.06299,0.65697 -2.88325,0.90168 -4.05058,0.54455 z m 0.0393,-12.29121 c -1.34372,-0.47316 -2.41856,-1.74098 -2.7354,-3.22653 -0.6693,-3.13817 1.46285,-5.57738 4.64464,-5.31352 2.2237,0.1844 3.73272,1.59592 3.97156,3.71497 0.26023,2.30869 -1.08555,4.32722 -3.29388,4.94048 -1.23809,0.34382 -1.28926,0.34154 -2.58692,-0.1154 z"
       style="fill:#000000;stroke-width:0.264583" />
  </g>
</svg>
